<svg id="icon_social_person_outline_24px" data-name="icon/social/person_outline_24px" xmlns="http://www.w3.org/2000/svg" width="21" height="21" viewBox="0 0 21 21">
  <path id="icon" d="M1.443,15.2A1.485,1.485,0,0,1,0,13.677V2.28A1.485,1.485,0,0,1,1.443.76H2.888V0H4.331V.76h5.775V0H11.55V.76h1.443a1.485,1.485,0,0,1,1.443,1.52v11.4a1.485,1.485,0,0,1-1.443,1.52Zm0-1.52h11.55v-7.6H1.443Zm11.55-9.118V2.28H11.55v.76H10.106V2.28H4.331v.76H2.888V2.28H1.443V4.559Z" transform="translate(3.5 2.625)" fill="#565656"/>
</svg>
