<svg xmlns="http://www.w3.org/2000/svg" xmlns:xlink="http://www.w3.org/1999/xlink" width="11.19" height="20.451" viewBox="0 0 11.19 20.451">
  <defs>
    <clipPath id="clip-path">
      <path id="facebook" d="M2.579,20.451H6.885V11.83h3.879l.426-4.284H6.885V5.382A1.076,1.076,0,0,1,7.961,4.306H11.19V0H7.961A5.382,5.382,0,0,0,2.579,5.382V7.545H.426L0,11.83H2.579Z" transform="translate(0.905 0.274)" fill="#3c5b9a"/>
    </clipPath>
  </defs>
  <g id="facebook-2" data-name="facebook" transform="translate(-0.905 -0.274)">
    <path id="facebook-3" data-name="facebook" d="M2.579,20.451H6.885V11.83h3.879l.426-4.284H6.885V5.382A1.076,1.076,0,0,1,7.961,4.306H11.19V0H7.961A5.382,5.382,0,0,0,2.579,5.382V7.545H.426L0,11.83H2.579Z" transform="translate(0.905 0.274)" fill="#3c5b9a"/>
  </g>
</svg>
