<svg xmlns="http://www.w3.org/2000/svg" width="22.6" height="21.659" viewBox="0 0 22.6 21.659">
  <path id="github" d="M11.3.5A11.2,11.2,0,0,0,0,11.6,11.123,11.123,0,0,0,7.727,22.14c.565.1.772-.239.772-.534,0-.264-.009-.962-.014-1.888-3.143.67-3.806-1.49-3.806-1.49A2.96,2.96,0,0,0,3.421,16.6c-1.024-.688.079-.674.079-.674a2.364,2.364,0,0,1,1.731,1.144A2.433,2.433,0,0,0,8.522,18a2.351,2.351,0,0,1,.716-1.485c-2.51-.278-5.147-1.233-5.147-5.487A4.242,4.242,0,0,1,5.254,8.046a3.885,3.885,0,0,1,.1-2.939s.946-.3,3.108,1.138a10.835,10.835,0,0,1,5.65,0C16.257,4.809,17.2,5.107,17.2,5.107a3.992,3.992,0,0,1,.113,2.939,4.26,4.26,0,0,1,1.158,2.979c0,4.266-2.641,5.2-5.156,5.478a2.635,2.635,0,0,1,.763,2.055c0,1.486-.014,2.68-.014,3.041,0,.291.2.638.777.527A11.089,11.089,0,0,0,22.6,11.6,11.2,11.2,0,0,0,11.3.5Z" transform="translate(0 -0.5)" fill="#fff"/>
</svg>
