<svg id="google" xmlns="http://www.w3.org/2000/svg" width="22.404" height="22.404" viewBox="0 0 22.404 22.404">
  <path id="Path_3" data-name="Path 3" d="M21.9,8.861H19.627a.328.328,0,0,0,0,.656h2.121V11.2a10.605,10.605,0,0,1-.181,1.953,10.492,10.492,0,0,1-2.43,5l-2.755-1.991a7.223,7.223,0,0,0,1.681-2.855.328.328,0,0,0-.314-.424H11.53V9.517h6.676a.328.328,0,0,0,0-.656h-6.83a.5.5,0,0,0-.5.5V13.04a.5.5,0,0,0,.5.5h5.912A6.522,6.522,0,0,1,7.277,16.408a.328.328,0,0,0-.4.524,7.178,7.178,0,0,0,8.625.013q.2-.152.393-.318l2.787,2.013A10.538,10.538,0,0,1,11.2,21.747h-.074A10.563,10.563,0,0,1,1.9,16.168l2.8-1.919a7.165,7.165,0,0,0,1.1,1.685A.328.328,0,0,0,6.3,15.5a6.52,6.52,0,0,1,9.4-9.023.5.5,0,0,0,.7-.009L19,3.87a.5.5,0,0,0-.007-.718A11.211,11.211,0,0,0,6.345,1.105.328.328,0,1,0,6.63,1.7a10.555,10.555,0,0,1,11.794,1.82L16.039,5.9A7.177,7.177,0,0,0,4.854,7.837L2.11,5.854a10.564,10.564,0,0,1,3.338-3.49.328.328,0,1,0-.359-.55A11.2,11.2,0,0,0,11.123,22.4H11.2a11.211,11.211,0,0,0,7.169-2.592,11.622,11.622,0,0,0,2.9-3.69,10.569,10.569,0,0,0,.945-2.846A11.263,11.263,0,0,0,22.4,11.2V9.364A.5.5,0,0,0,21.9,8.861ZM1.792,6.434,4.57,8.441a7.232,7.232,0,0,0-.121,5.188L1.61,15.574a10.543,10.543,0,0,1,.182-9.14Z" transform="translate(0 0)" fill="#fff"/>
</svg>
