<svg xmlns="http://www.w3.org/2000/svg" width="137.026" height="120.433" viewBox="0 0 137.026 120.433">
  <g id="graduation-hat_1_" data-name="graduation-hat (1)" transform="translate(0 0)">
    <path id="Path_1" data-name="Path 1" d="M179.318,127.616v31.152c0,13.007-22.722,20.072-44.159,20.072S91,171.775,91,158.768V127.616a4.025,4.025,0,0,1,4.014-4.014H175.3A4.025,4.025,0,0,1,179.318,127.616Zm0,0" transform="translate(-66.646 -90.522)" fill="#7d87ff"/>
    <path id="Path_2" data-name="Path 2" d="M300.159,127.616v31.152c0,13.007-22.722,20.072-44.159,20.072V123.6h40.144A4.025,4.025,0,0,1,300.159,127.616Zm0,0" transform="translate(-187.487 -90.522)" fill="#5360ff"/>
    <path id="Path_3" data-name="Path 3" d="M144.058,28.1a4.021,4.021,0,0,1-2.57,3.773L76.99,55.961a4.443,4.443,0,0,1-2.89,0L9.6,31.874V24.327L74.1.241a4.461,4.461,0,0,1,2.89,0l64.5,24.087a4.023,4.023,0,0,1,2.57,3.774Zm0,0" transform="translate(-7.032 0)" fill="#717cff"/>
    <path id="Path_4" data-name="Path 4" d="M324.513,28.1a4.021,4.021,0,0,1-2.57,3.773l-64.5,24.087A4.529,4.529,0,0,1,256,56.2V0a4.556,4.556,0,0,1,1.445.24l64.5,24.087a4.023,4.023,0,0,1,2.57,3.774Zm0,0" transform="translate(-187.487)" fill="#616dff"/>
    <path id="Path_5" data-name="Path 5" d="M72.528,94.015a3.975,3.975,0,0,1-4.014,4.014H8.029V157.6l7.787,23.445a3.986,3.986,0,1,1-7.546,2.569l-.241-.721a4.13,4.13,0,0,1-4.014,3.452A3.975,3.975,0,0,1,0,182.333V94.015A3.975,3.975,0,0,1,4.015,90h64.5a3.975,3.975,0,0,1,4.014,4.014Zm0,0" transform="translate(0 -65.914)" fill="#fdbf00"/>
  </g>
</svg>
