<svg xmlns="http://www.w3.org/2000/svg" width="21.312" height="22.434" viewBox="0 0 21.312 22.434">
  <path id="icon" d="M14.918,22.434H6.394A6.576,6.576,0,0,1,0,15.7V6.73A6.576,6.576,0,0,1,6.394,0h8.525a6.576,6.576,0,0,1,6.394,6.73V15.7A6.576,6.576,0,0,1,14.918,22.434ZM6.394,2.244A4.384,4.384,0,0,0,2.131,6.73V15.7A4.384,4.384,0,0,0,6.394,20.19h8.525A4.384,4.384,0,0,0,19.181,15.7V6.73a4.384,4.384,0,0,0-4.263-4.486Zm4.263,14.582a5.481,5.481,0,0,1-5.329-5.609,5.48,5.48,0,0,1,5.329-5.608,5.479,5.479,0,0,1,5.328,5.608A5.48,5.48,0,0,1,10.657,16.826Zm0-8.975a3.288,3.288,0,0,0-3.2,3.365,3.288,3.288,0,0,0,3.2,3.365,3.288,3.288,0,0,0,3.2-3.365A3.288,3.288,0,0,0,10.657,7.852ZM15.984,6.73A1.123,1.123,0,1,1,17.05,5.609,1.1,1.1,0,0,1,15.984,6.73Z" transform="translate(0)" fill="#ff5552"/>
</svg>
