<svg id="time" xmlns="http://www.w3.org/2000/svg" xmlns:xlink="http://www.w3.org/1999/xlink" width="24" height="24" viewBox="0 0 24 24">
  <defs>
    <clipPath id="clip-path">
      <path id="Combined_Shape" data-name="Combined Shape" d="M0,8.333a8.334,8.334,0,1,1,8.333,8.334A8.343,8.343,0,0,1,0,8.333Zm1.667,0A6.667,6.667,0,1,0,8.333,1.667,6.674,6.674,0,0,0,1.667,8.333ZM5.833,10V4.167H7.5V8.333h4.167V10Z" transform="translate(3.667 3.667)" fill="#2d2d2d"/>
    </clipPath>
  </defs>
  <g id="Group_7" data-name="Group 7">
    <path id="Combined_Shape-2" data-name="Combined Shape" d="M0,8.333a8.334,8.334,0,1,1,8.333,8.334A8.343,8.343,0,0,1,0,8.333Zm1.667,0A6.667,6.667,0,1,0,8.333,1.667,6.674,6.674,0,0,0,1.667,8.333ZM5.833,10V4.167H7.5V8.333h4.167V10Z" transform="translate(3.667 3.667)" fill="#373737"/>
  </g>
</svg>
