<svg id="facebook_copy" data-name="facebook copy" xmlns="http://www.w3.org/2000/svg" xmlns:xlink="http://www.w3.org/1999/xlink" width="31" height="31" viewBox="0 0 31 31">
  <defs>
    <clipPath id="clip-path">
      <path id="icon_social_twitter_24px" data-name="icon/social/twitter_24px" d="M7.279,17.658a11.44,11.44,0,0,1-4.748-.97A9.054,9.054,0,0,1,.69,15.647a1.766,1.766,0,0,1,1.124-3.163c.328.009.635,0,.922-.013a4.322,4.322,0,0,1-.95-1.825,1.775,1.775,0,0,1-.034-.545,5.27,5.27,0,0,1-.315-.424A4.833,4.833,0,0,1,.6,6.67c.006-.09.006-.09.013-.144a1.752,1.752,0,0,1,.239-.708A5.685,5.685,0,0,1,.915,2.38a5.447,5.447,0,0,1,.327-.828A1.765,1.765,0,0,1,4.157,1.2,9.181,9.181,0,0,0,7.93,4.038c.15.055.3.1.434.137C8.75,1.738,10.355.279,11.9.149A6.963,6.963,0,0,1,16.342.67c.07.033.136.066.2.1l1.242-.5a1.766,1.766,0,0,1,2.405,1.925,1.756,1.756,0,0,1-.117,2.521L18.8,5.852a9.657,9.657,0,0,1-.766,4.055,12.91,12.91,0,0,1-4.4,5.675,11.374,11.374,0,0,1-4.1,1.823,9.781,9.781,0,0,1-2.1.255Z" transform="translate(0 0)" fill="#37474f"/>
    </clipPath>
  </defs>
  <g id="Group_2" data-name="Group 2" transform="translate(5.167 6.67)">
    <path id="icon_social_twitter_24px-2" data-name="icon/social/twitter_24px" d="M7.279,17.658a11.44,11.44,0,0,1-4.748-.97A9.054,9.054,0,0,1,.69,15.647a1.766,1.766,0,0,1,1.124-3.163c.328.009.635,0,.922-.013a4.322,4.322,0,0,1-.95-1.825,1.775,1.775,0,0,1-.034-.545,5.27,5.27,0,0,1-.315-.424A4.833,4.833,0,0,1,.6,6.67c.006-.09.006-.09.013-.144a1.752,1.752,0,0,1,.239-.708A5.685,5.685,0,0,1,.915,2.38a5.447,5.447,0,0,1,.327-.828A1.765,1.765,0,0,1,4.157,1.2,9.181,9.181,0,0,0,7.93,4.038c.15.055.3.1.434.137C8.75,1.738,10.355.279,11.9.149A6.963,6.963,0,0,1,16.342.67c.07.033.136.066.2.1l1.242-.5a1.766,1.766,0,0,1,2.405,1.925,1.756,1.756,0,0,1-.117,2.521L18.8,5.852a9.657,9.657,0,0,1-.766,4.055,12.91,12.91,0,0,1-4.4,5.675,11.374,11.374,0,0,1-4.1,1.823,9.781,9.781,0,0,1-2.1.255Z" transform="translate(0 0)" fill="#236cd9"/>
  </g>
</svg>
